<svg xmlns="http://www.w3.org/2000/svg" viewBox="0 0 245.008 51.373">
  <defs>
    <style>
      .cls-1 {
        fill: #7b7271;
      }

      .cls-2 {
        fill: #fb503b;
      }

      .cls-3 {
        fill: #fff;
      }
    </style>
  </defs>
  <g id="Groupe_5" data-name="Groupe 5" transform="translate(-203.703 -174.703)">
    <g id="Groupe_4" data-name="Groupe 4">
      <g id="Groupe_3" data-name="Groupe 3" transform="translate(0 58)">
        <path id="Tracé_2" data-name="Tracé 2" class="cls-1" d="M2.539,0V-28.437H12.5q5.176,0,7.852,1.982a6.779,6.779,0,0,1,2.676,5.811,6.425,6.425,0,0,1-1.074,3.682,6.2,6.2,0,0,1-2.988,2.334,6,6,0,0,1,3.447,2.207,6.525,6.525,0,0,1,1.26,4.063,7.5,7.5,0,0,1-2.617,6.211Q18.437-.039,13.594,0ZM8.4-12.383v7.676h5.02a4.844,4.844,0,0,0,3.232-.986,3.382,3.382,0,0,0,1.162-2.725q0-3.906-4.043-3.965Zm0-4.141h4.336q4.434-.078,4.434-3.535a3.267,3.267,0,0,0-1.123-2.783,5.907,5.907,0,0,0-3.545-.85H8.4Zm18.418,5.762a12.533,12.533,0,0,1,1.211-5.605,8.865,8.865,0,0,1,3.486-3.809A10.171,10.171,0,0,1,36.8-21.523a9.623,9.623,0,0,1,6.982,2.617A10.5,10.5,0,0,1,46.8-11.8l.039,1.445a11.045,11.045,0,0,1-2.715,7.8A9.437,9.437,0,0,1,36.836.391a9.484,9.484,0,0,1-7.295-2.93,11.24,11.24,0,0,1-2.725-7.969Zm5.645.4a7.9,7.9,0,0,0,1.133,4.607A3.737,3.737,0,0,0,36.836-4.16a3.746,3.746,0,0,0,3.2-1.575,8.644,8.644,0,0,0,1.152-5.037,7.82,7.82,0,0,0-1.152-4.577A3.746,3.746,0,0,0,36.8-16.973a3.685,3.685,0,0,0-3.2,1.614A8.789,8.789,0,0,0,32.461-10.361ZM62.188-15.84A15.335,15.335,0,0,0,60.156-16q-3.2,0-4.2,2.168V0H50.313V-21.133h5.332l.156,2.52a5.23,5.23,0,0,1,4.707-2.91,5.914,5.914,0,0,1,1.758.254Zm14.59,0A15.335,15.335,0,0,0,74.746-16q-3.2,0-4.2,2.168V0H64.9V-21.133h5.332l.156,2.52a5.23,5.23,0,0,1,4.707-2.91,5.914,5.914,0,0,1,1.758.254Zm1.133,5.078a12.533,12.533,0,0,1,1.211-5.605,8.865,8.865,0,0,1,3.486-3.809,10.171,10.171,0,0,1,5.283-1.348,9.623,9.623,0,0,1,6.982,2.617A10.5,10.5,0,0,1,97.891-11.8l.039,1.445a11.045,11.045,0,0,1-2.715,7.8A9.437,9.437,0,0,1,87.93.391a9.484,9.484,0,0,1-7.295-2.93,11.24,11.24,0,0,1-2.725-7.969Zm5.645.4a7.9,7.9,0,0,0,1.133,4.607A3.737,3.737,0,0,0,87.93-4.16a3.746,3.746,0,0,0,3.2-1.575,8.644,8.644,0,0,0,1.152-5.037,7.82,7.82,0,0,0-1.152-4.577,3.746,3.746,0,0,0-3.242-1.624,3.685,3.685,0,0,0-3.2,1.614A8.789,8.789,0,0,0,83.555-10.361Zm36.23,2.685,2.773-13.457h5.449L122.617,0h-4.727l-4-13.3-4,13.3h-4.707L99.785-21.133h5.449L107.988-7.7l3.867-13.437h4.082ZM140.527.391a10.374,10.374,0,0,1-7.568-2.852,10.136,10.136,0,0,1-2.92-7.6v-.547a12.766,12.766,0,0,1,1.23-5.693,9.03,9.03,0,0,1,3.486-3.867,9.785,9.785,0,0,1,5.146-1.357,8.77,8.77,0,0,1,6.826,2.734q2.49,2.734,2.49,7.754v2.3H135.762a5.244,5.244,0,0,0,1.65,3.32A4.989,4.989,0,0,0,140.9-4.16,6.093,6.093,0,0,0,146-6.523l2.773,3.105a8.473,8.473,0,0,1-3.437,2.8A11.278,11.278,0,0,1,140.527.391Zm-.645-17.363a3.527,3.527,0,0,0-2.725,1.138,5.892,5.892,0,0,0-1.338,3.257h7.852v-.451a4.2,4.2,0,0,0-1.016-2.913A3.639,3.639,0,0,0,139.883-16.973ZM158.379,0h-5.664V-30h5.664Zm10.605,0H163.32V-30h5.664Z" transform="translate(247 150)"/>
        <g id="Groupe_1" data-name="Groupe 1" transform="translate(-8 -3)">
          <path id="Tracé_1" data-name="Tracé 1" class="cls-2" d="M13.459,0A13.459,13.459,0,1,1,0,13.459,13.459,13.459,0,0,1,13.459,0Z" transform="translate(230.738 119.703) rotate(45)"/>
          <rect id="Rectangle_1" data-name="Rectangle 1" class="cls-3" width="1.153" height="9.227" rx="0.577" transform="translate(228.639 135.449) rotate(45)"/>
          <rect id="Rectangle_2" data-name="Rectangle 2" class="cls-3" width="1.153" height="21.915" rx="0.577" transform="translate(237.883 130.387) rotate(45)"/>
          <rect id="Rectangle_3" data-name="Rectangle 3" class="cls-3" width="1.153" height="9.227" rx="0.577" transform="translate(236.857 135.449) rotate(45)"/>
        </g>
      </g>
      <path id="Tracé_3" data-name="Tracé 3" class="cls-2" d="M3.48.075a1.074,1.074,0,0,1-.795-.248,1.364,1.364,0,0,1-.24-.938,8.528,8.528,0,0,1,.09-1.125q.09-.66.315-1.995.03-.18.24-1.463t.375-2.692a15.915,15.915,0,0,0,.15-1.8q0-.675-.5-.675a1.763,1.763,0,0,0-.937.4A5.716,5.716,0,0,0,.975-9.2.586.586,0,0,1,.51-8.91a.458.458,0,0,1-.368-.2A.726.726,0,0,1-.015-9.57a1.339,1.339,0,0,1,.09-.488,2.627,2.627,0,0,1,.33-.562A5.752,5.752,0,0,1,2.04-12.173a3.582,3.582,0,0,1,1.89-.548,1.5,1.5,0,0,1,1.237.51,2.315,2.315,0,0,1,.412,1.485,18.96,18.96,0,0,1-.24,2.52,8.535,8.535,0,0,1,1.905-3.368A3.728,3.728,0,0,1,9.96-12.72a2.355,2.355,0,0,1,1.852.7,2.7,2.7,0,0,1,.623,1.867,8.156,8.156,0,0,1-.195,1.6l-.915,4.29a6.725,6.725,0,0,0-.15,1.29,1.346,1.346,0,0,0,.292.945,1.06,1.06,0,0,0,.818.315,1.672,1.672,0,0,0,.967-.33A6.347,6.347,0,0,0,14.37-3.135a.527.527,0,0,1,.405-.21.347.347,0,0,1,.307.18.93.93,0,0,1,.112.5,1.416,1.416,0,0,1-.285.93A5.8,5.8,0,0,1,13.365-.36,3.2,3.2,0,0,1,11.76.075,2.621,2.621,0,0,1,9.765-.683a2.828,2.828,0,0,1-.72-2.033A7.774,7.774,0,0,1,9.128-3.8q.082-.585.278-1.485l.6-2.745q.03-.135.1-.48t.12-.653a4.191,4.191,0,0,0,.045-.608,1.067,1.067,0,0,0-.27-.765,1,1,0,0,0-.765-.285,2.535,2.535,0,0,0-1.8.96,9.054,9.054,0,0,0-1.665,3.1,26.921,26.921,0,0,0-1.2,5.468A2.69,2.69,0,0,1,4.267-.225.888.888,0,0,1,3.48.075Zm18.15-4.68a.327.327,0,0,1,.3.2,1.037,1.037,0,0,1,.1.495q0,.72-.435.855a6.829,6.829,0,0,1-1.98.36A3.744,3.744,0,0,1,18.495-.683a2.768,2.768,0,0,1-1.9.758A2.662,2.662,0,0,1,15.052-.36a2.763,2.763,0,0,1-.968-1.155,3.7,3.7,0,0,1-.33-1.56,4.581,4.581,0,0,1,.435-2.033A3.417,3.417,0,0,1,15.39-6.5a3.022,3.022,0,0,1,1.695-.5,2.336,2.336,0,0,1,1.838.787,3.373,3.373,0,0,1,.817,1.942,9.091,9.091,0,0,0,1.68-.3A.881.881,0,0,1,21.63-4.605Zm-4.92,3.09a1.088,1.088,0,0,0,.833-.39,2.165,2.165,0,0,0,.472-1.125,2.071,2.071,0,0,1-.712-.825,2.442,2.442,0,0,1-.247-1.08,2.6,2.6,0,0,1,.045-.48h-.075a1.178,1.178,0,0,0-1,.578,2.847,2.847,0,0,0-.4,1.627,2.093,2.093,0,0,0,.323,1.26A.931.931,0,0,0,16.71-1.515Zm12.555-1.83a.347.347,0,0,1,.307.18.93.93,0,0,1,.113.5,1.379,1.379,0,0,1-.285.93A7.241,7.241,0,0,1,28.05-.458a2.478,2.478,0,0,1-1.455.533,1.9,1.9,0,0,1-1.74-1.335A4.31,4.31,0,0,1,23.752-.2a2.184,2.184,0,0,1-1.1.27,1.908,1.908,0,0,1-1.507-.683,2.614,2.614,0,0,1-.593-1.778,4.941,4.941,0,0,1,.51-2.227,4.551,4.551,0,0,1,1.4-1.68,4.077,4.077,0,0,1,2-.772,18.86,18.86,0,0,1,1.087-4.973q.8-2.062,2.108-2.062a1.284,1.284,0,0,1,1.073.585,3,3,0,0,1,.427,1.77,11.672,11.672,0,0,1-.825,3.93,29.194,29.194,0,0,1-2.2,4.62,3.276,3.276,0,0,0,.263,1.245.594.594,0,0,0,.517.375,1.282,1.282,0,0,0,.825-.36,10.946,10.946,0,0,0,1.125-1.2A.527.527,0,0,1,29.265-3.345Zm-1.77-9.285q-.285,0-.57,1.013a18.485,18.485,0,0,0-.487,2.647q-.2,1.635-.292,3.42a15.14,15.14,0,0,0,1.68-5.88,3.132,3.132,0,0,0-.1-.885Q27.63-12.63,27.495-12.63ZM23.175-1.44a.9.9,0,0,0,.57-.232,4.4,4.4,0,0,0,.72-.863,10.013,10.013,0,0,1-.15-1.815q0-.36.03-1.17a2.513,2.513,0,0,0-1.372,1.1,3.4,3.4,0,0,0-.548,1.883Q22.425-1.44,23.175-1.44ZM33.84-2.895a.347.347,0,0,1,.307.18.93.93,0,0,1,.113.5,1.661,1.661,0,0,1-.255.93A2.92,2.92,0,0,1,32.9-.285a3.445,3.445,0,0,1-1.628.36A2.888,2.888,0,0,1,29.04-.788a3.307,3.307,0,0,1-.8-2.333,4.341,4.341,0,0,1,.435-1.928,3.562,3.562,0,0,1,1.208-1.418,3.037,3.037,0,0,1,1.747-.525,1.9,1.9,0,0,1,1.395.517,1.88,1.88,0,0,1,.525,1.4,2.425,2.425,0,0,1-.743,1.778,5.385,5.385,0,0,1-2.528,1.178,1.261,1.261,0,0,0,1.215.69,1.7,1.7,0,0,0,1.013-.285,4.9,4.9,0,0,0,.923-.96A.516.516,0,0,1,33.84-2.895ZM31.38-5.52a1.1,1.1,0,0,0-.937.645,3.006,3.006,0,0,0-.383,1.56v.03a3.409,3.409,0,0,0,1.4-.63,1.238,1.238,0,0,0,.51-.975.652.652,0,0,0-.158-.458A.55.55,0,0,0,31.38-5.52Zm19.125-6.93a1.353,1.353,0,0,1,.7.315.709.709,0,0,1,.233.525.873.873,0,0,1-.278.72,1.235,1.235,0,0,1-.878.18q-1.35-.1-2.107-.142t-1.988-.053q-.555,2.76-1.02,5.55Q45-4.335,44.82-2.993T44.58-.825a.843.843,0,0,1-.36.668,1.345,1.345,0,0,1-.8.233,1.114,1.114,0,0,1-.765-.24.8.8,0,0,1-.27-.63A10.189,10.189,0,0,1,42.5-1.988q.113-.832.263-1.748.165-.915.255-1.59.165-1.14.375-2.265t.42-2.13q.045-.225.1-.517t.135-.653a12.394,12.394,0,0,0-2.31.24,2.478,2.478,0,0,0-1.193.547A1.228,1.228,0,0,0,40.2-9.2a1.771,1.771,0,0,0,.3.975A.446.446,0,0,1,40.56-8a.681.681,0,0,1-.337.533,1.166,1.166,0,0,1-.7.247.6.6,0,0,1-.42-.15,1.869,1.869,0,0,1-.495-.727,2.79,2.79,0,0,1-.195-1.073,2.661,2.661,0,0,1,.832-2.048,5.3,5.3,0,0,1,2.535-1.132,21.771,21.771,0,0,1,4.372-.36q1.65,0,2.632.06A14.527,14.527,0,0,1,50.505-12.45Zm4.86,7.845a.327.327,0,0,1,.3.2,1.037,1.037,0,0,1,.1.495q0,.72-.435.855a6.829,6.829,0,0,1-1.98.36A3.744,3.744,0,0,1,52.23-.683a2.768,2.768,0,0,1-1.9.758A2.662,2.662,0,0,1,48.787-.36a2.763,2.763,0,0,1-.967-1.155,3.7,3.7,0,0,1-.33-1.56,4.581,4.581,0,0,1,.435-2.033,3.417,3.417,0,0,1,1.2-1.395,3.022,3.022,0,0,1,1.695-.5,2.336,2.336,0,0,1,1.838.787,3.373,3.373,0,0,1,.817,1.942,9.091,9.091,0,0,0,1.68-.3A.881.881,0,0,1,55.365-4.605Zm-4.92,3.09a1.088,1.088,0,0,0,.833-.39A2.165,2.165,0,0,0,51.75-3.03a2.071,2.071,0,0,1-.713-.825,2.442,2.442,0,0,1-.247-1.08,2.6,2.6,0,0,1,.045-.48H50.76a1.178,1.178,0,0,0-1,.578,2.847,2.847,0,0,0-.4,1.627,2.093,2.093,0,0,0,.323,1.26A.931.931,0,0,0,50.445-1.515ZM62.13-4.605a.327.327,0,0,1,.3.2,1.037,1.037,0,0,1,.1.495q0,.72-.435.855a6.829,6.829,0,0,1-1.98.36A3.744,3.744,0,0,1,58.995-.683a2.768,2.768,0,0,1-1.9.758A2.662,2.662,0,0,1,55.552-.36a2.763,2.763,0,0,1-.967-1.155,3.7,3.7,0,0,1-.33-1.56,4.581,4.581,0,0,1,.435-2.033A3.417,3.417,0,0,1,55.89-6.5a3.022,3.022,0,0,1,1.695-.5,2.336,2.336,0,0,1,1.838.787,3.373,3.373,0,0,1,.817,1.942,9.091,9.091,0,0,0,1.68-.3A.881.881,0,0,1,62.13-4.605Zm-4.92,3.09a1.088,1.088,0,0,0,.833-.39,2.165,2.165,0,0,0,.472-1.125,2.071,2.071,0,0,1-.713-.825,2.442,2.442,0,0,1-.247-1.08,2.6,2.6,0,0,1,.045-.48h-.075a1.178,1.178,0,0,0-1,.578,2.847,2.847,0,0,0-.4,1.627,2.093,2.093,0,0,0,.323,1.26A.931.931,0,0,0,57.21-1.515Zm8.37-.6a.5.5,0,0,1,.33-.15.333.333,0,0,1,.293.2.99.99,0,0,1,.112.487,1.241,1.241,0,0,1-.45,1A2.7,2.7,0,0,1,64.1.075,2.215,2.215,0,0,1,62.01-1.118a6.4,6.4,0,0,1-.66-3.112,21.327,21.327,0,0,1,.472-4.17,14.149,14.149,0,0,1,1.4-4.02q.923-1.68,2.2-1.68a1.272,1.272,0,0,1,1.132.667,3.659,3.659,0,0,1,.412,1.913,10.994,10.994,0,0,1-.982,4.14A22.3,22.3,0,0,1,63.3-2.73a1.621,1.621,0,0,0,.375.885.993.993,0,0,0,.735.27,1.394,1.394,0,0,0,.577-.15A2.431,2.431,0,0,0,65.58-2.115Zm-.5-10.5q-.345,0-.78,1.245a20.46,20.46,0,0,0-.765,3.09,22.369,22.369,0,0,0-.36,3.54,19.331,19.331,0,0,0,1.7-3.518,9.642,9.642,0,0,0,.63-3.217Q65.5-12.615,65.085-12.615Z" transform="translate(382 226) rotate(-5)"/>
    </g>
  </g>
</svg>
