<svg xmlns="http://www.w3.org/2000/svg" viewBox="0 0 212.281 38.068">
  <defs>
    <style>
      .cls-1 {
        fill: #7b7271;
      }

      .cls-2 {
        fill: #fb503b;
      }

      .cls-3 {
        fill: #fff;
      }
    </style>
  </defs>
  <g id="Groupe_2" data-name="Groupe 2" transform="translate(-203.703 -116.703)">
    <path id="Tracé_2" data-name="Tracé 2" class="cls-1" d="M2.539,0V-28.437H12.5q5.176,0,7.852,1.982a6.779,6.779,0,0,1,2.676,5.811,6.425,6.425,0,0,1-1.074,3.682,6.2,6.2,0,0,1-2.988,2.334,6,6,0,0,1,3.447,2.207,6.525,6.525,0,0,1,1.26,4.063,7.5,7.5,0,0,1-2.617,6.211Q18.437-.039,13.594,0ZM8.4-12.383v7.676h5.02a4.844,4.844,0,0,0,3.232-.986,3.382,3.382,0,0,0,1.162-2.725q0-3.906-4.043-3.965Zm0-4.141h4.336q4.434-.078,4.434-3.535a3.267,3.267,0,0,0-1.123-2.783,5.907,5.907,0,0,0-3.545-.85H8.4Zm18.418,5.762a12.533,12.533,0,0,1,1.211-5.605,8.865,8.865,0,0,1,3.486-3.809A10.171,10.171,0,0,1,36.8-21.523a9.623,9.623,0,0,1,6.982,2.617A10.5,10.5,0,0,1,46.8-11.8l.039,1.445a11.045,11.045,0,0,1-2.715,7.8A9.437,9.437,0,0,1,36.836.391a9.484,9.484,0,0,1-7.295-2.93,11.24,11.24,0,0,1-2.725-7.969Zm5.645.4a7.9,7.9,0,0,0,1.133,4.607A3.737,3.737,0,0,0,36.836-4.16a3.746,3.746,0,0,0,3.2-1.575,8.644,8.644,0,0,0,1.152-5.037,7.82,7.82,0,0,0-1.152-4.577A3.746,3.746,0,0,0,36.8-16.973a3.685,3.685,0,0,0-3.2,1.614A8.789,8.789,0,0,0,32.461-10.361ZM62.188-15.84A15.335,15.335,0,0,0,60.156-16q-3.2,0-4.2,2.168V0H50.313V-21.133h5.332l.156,2.52a5.23,5.23,0,0,1,4.707-2.91,5.914,5.914,0,0,1,1.758.254Zm14.59,0A15.335,15.335,0,0,0,74.746-16q-3.2,0-4.2,2.168V0H64.9V-21.133h5.332l.156,2.52a5.23,5.23,0,0,1,4.707-2.91,5.914,5.914,0,0,1,1.758.254Zm1.133,5.078a12.533,12.533,0,0,1,1.211-5.605,8.865,8.865,0,0,1,3.486-3.809,10.171,10.171,0,0,1,5.283-1.348,9.623,9.623,0,0,1,6.982,2.617A10.5,10.5,0,0,1,97.891-11.8l.039,1.445a11.045,11.045,0,0,1-2.715,7.8A9.437,9.437,0,0,1,87.93.391a9.484,9.484,0,0,1-7.295-2.93,11.24,11.24,0,0,1-2.725-7.969Zm5.645.4a7.9,7.9,0,0,0,1.133,4.607A3.737,3.737,0,0,0,87.93-4.16a3.746,3.746,0,0,0,3.2-1.575,8.644,8.644,0,0,0,1.152-5.037,7.82,7.82,0,0,0-1.152-4.577,3.746,3.746,0,0,0-3.242-1.624,3.685,3.685,0,0,0-3.2,1.614A8.789,8.789,0,0,0,83.555-10.361Zm36.23,2.685,2.773-13.457h5.449L122.617,0h-4.727l-4-13.3-4,13.3h-4.707L99.785-21.133h5.449L107.988-7.7l3.867-13.437h4.082ZM140.527.391a10.374,10.374,0,0,1-7.568-2.852,10.136,10.136,0,0,1-2.92-7.6v-.547a12.766,12.766,0,0,1,1.23-5.693,9.03,9.03,0,0,1,3.486-3.867,9.785,9.785,0,0,1,5.146-1.357,8.77,8.77,0,0,1,6.826,2.734q2.49,2.734,2.49,7.754v2.3H135.762a5.244,5.244,0,0,0,1.65,3.32A4.989,4.989,0,0,0,140.9-4.16,6.093,6.093,0,0,0,146-6.523l2.773,3.105a8.473,8.473,0,0,1-3.437,2.8A11.278,11.278,0,0,1,140.527.391Zm-.645-17.363a3.527,3.527,0,0,0-2.725,1.138,5.892,5.892,0,0,0-1.338,3.257h7.852v-.451a4.2,4.2,0,0,0-1.016-2.913A3.639,3.639,0,0,0,139.883-16.973ZM158.379,0h-5.664V-30h5.664Zm10.605,0H163.32V-30h5.664Z" transform="translate(247 150)"/>
    <g id="Groupe_1" data-name="Groupe 1" transform="translate(-8 -3)">
      <path id="Tracé_1" data-name="Tracé 1" class="cls-2" d="M13.459,0A13.459,13.459,0,1,1,0,13.459,13.459,13.459,0,0,1,13.459,0Z" transform="translate(230.738 119.703) rotate(45)"/>
      <rect id="Rectangle_1" data-name="Rectangle 1" class="cls-3" width="1.153" height="9.227" rx="0.577" transform="translate(228.639 135.449) rotate(45)"/>
      <rect id="Rectangle_2" data-name="Rectangle 2" class="cls-3" width="1.153" height="21.915" rx="0.577" transform="translate(237.883 130.387) rotate(45)"/>
      <rect id="Rectangle_3" data-name="Rectangle 3" class="cls-3" width="1.153" height="9.227" rx="0.577" transform="translate(236.857 135.449) rotate(45)"/>
    </g>
  </g>
</svg>
