<?xml version="1.0" encoding="iso-8859-1"?>
<!-- Generator: Adobe Illustrator 18.1.1, SVG Export Plug-In . SVG Version: 6.00 Build 0)  -->
<svg version="1.1" id="Capa_1" xmlns="http://www.w3.org/2000/svg" xmlns:xlink="http://www.w3.org/1999/xlink" x="0px" y="0px"
	 viewBox="0 0 174.239 174.239" style="enable-background:new 0 0 174.239 174.239;" xml:space="preserve">
<g>
	<path d="M123.09,31.665H19.547c-2.191,0-3.983,1.742-3.983,3.933v136.249c0,2.141,1.543,3.037,3.385,1.892l48.984-29.57
		c1.841-1.145,4.928-1.145,6.769,0l48.934,29.57c1.842,1.145,3.385,0.249,3.385-1.892V35.598
		C127.022,33.407,125.231,31.665,123.09,31.665z M95.561,92.298c0,2.19-1.792,3.982-3.982,3.982H77.242v14.337
		c0,2.141-1.791,3.933-3.982,3.933h-3.932c-2.191,0-3.933-1.792-3.933-3.933V96.28H51.008c-2.14,0-3.932-1.792-3.932-3.982v-3.933
		c0-2.19,1.792-3.982,3.932-3.982h14.387V70.046c0-2.19,1.742-3.933,3.933-3.933h3.932c2.191,0,3.982,1.742,3.982,3.933v14.337
		h14.337c2.19,0,3.982,1.792,3.982,3.982V92.298z"/>
	<path d="M154.718,0c2.176,0,3.956,1.78,3.956,3.956V141.48c0,2.176-1.465,2.945-3.256,1.709l-13.269-9.156
		c-1.791-1.236-3.256-4.027-3.256-6.203V23.738c0-2.176-1.78-3.956-3.956-3.956H51.18c-2.176,0-3.956-1.78-3.956-3.956V3.956
		C47.224,1.78,49.004,0,51.18,0H154.718z"/>
</g>
<g>
</g>
<g>
</g>
<g>
</g>
<g>
</g>
<g>
</g>
<g>
</g>
<g>
</g>
<g>
</g>
<g>
</g>
<g>
</g>
<g>
</g>
<g>
</g>
<g>
</g>
<g>
</g>
<g>
</g>
</svg>
